<svg width="21" height="20" viewBox="0 0 21 20" fill="none" xmlns="http://www.w3.org/2000/svg">
<g clip-path="url(#clip0)">
<path d="M14.6666 17.5V15.8333C14.6666 14.9493 14.3154 14.1014 13.6903 13.4763C13.0652 12.8512 12.2173 12.5 11.3333 12.5H4.66659C3.78253 12.5 2.93468 12.8512 2.30956 13.4763C1.68444 14.1014 1.33325 14.9493 1.33325 15.8333V17.5" stroke="#FAFAFA" stroke-width="2" stroke-linecap="round" stroke-linejoin="round"/>
<path d="M8.00008 9.16667C9.84103 9.16667 11.3334 7.67428 11.3334 5.83333C11.3334 3.99238 9.84103 2.5 8.00008 2.5C6.15913 2.5 4.66675 3.99238 4.66675 5.83333C4.66675 7.67428 6.15913 9.16667 8.00008 9.16667Z" stroke="#FAFAFA" stroke-width="2" stroke-linecap="round" stroke-linejoin="round"/>
<path d="M19.6667 17.5V15.8333C19.6662 15.0948 19.4204 14.3773 18.9679 13.7936C18.5154 13.2099 17.8819 12.793 17.1667 12.6083" stroke="#FAFAFA" stroke-width="2" stroke-linecap="round" stroke-linejoin="round"/>
<path d="M13.8333 2.60834C14.5503 2.79192 15.1858 3.20892 15.6396 3.7936C16.0935 4.37827 16.3398 5.09736 16.3398 5.8375C16.3398 6.57765 16.0935 7.29674 15.6396 7.88141C15.1858 8.46609 14.5503 8.88309 13.8333 9.06667" stroke="#FAFAFA" stroke-width="2" stroke-linecap="round" stroke-linejoin="round"/>
</g>
<defs>
<clipPath id="clip0">
<rect width="20" height="20" fill="white" transform="translate(0.5)"/>
</clipPath>
</defs>
</svg>
