<svg width="21" height="20" viewBox="0 0 21 20" fill="none" xmlns="http://www.w3.org/2000/svg">
<g clip-path="url(#clip0)">
<path d="M14.6668 17.5V15.8333C14.6668 14.9493 14.3156 14.1014 13.6905 13.4763C13.0654 12.8512 12.2176 12.5 11.3335 12.5H4.66683C3.78277 12.5 2.93493 12.8512 2.30981 13.4763C1.68469 14.1014 1.3335 14.9493 1.3335 15.8333V17.5" stroke="url(#paint0_linear)" stroke-width="2" stroke-linecap="round" stroke-linejoin="round"/>
<path d="M8.00008 9.16667C9.84103 9.16667 11.3334 7.67428 11.3334 5.83333C11.3334 3.99238 9.84103 2.5 8.00008 2.5C6.15913 2.5 4.66675 3.99238 4.66675 5.83333C4.66675 7.67428 6.15913 9.16667 8.00008 9.16667Z" stroke="url(#paint1_linear)" stroke-width="2" stroke-linecap="round" stroke-linejoin="round"/>
<path d="M19.6667 17.5V15.8333C19.6662 15.0948 19.4204 14.3773 18.9679 13.7936C18.5154 13.2099 17.8819 12.793 17.1667 12.6083" stroke="url(#paint2_linear)" stroke-width="2" stroke-linecap="round" stroke-linejoin="round"/>
<path d="M13.8335 2.60833C14.5505 2.79192 15.186 3.20892 15.6399 3.79359C16.0937 4.37827 16.34 5.09736 16.34 5.8375C16.34 6.57764 16.0937 7.29673 15.6399 7.88141C15.186 8.46608 14.5505 8.88308 13.8335 9.06667" stroke="url(#paint3_linear)" stroke-width="2" stroke-linecap="round" stroke-linejoin="round"/>
</g>
<defs>
<linearGradient id="paint0_linear" x1="17.2923" y1="4.93616" x2="15.7894" y2="18.9475" gradientUnits="userSpaceOnUse">
<stop stop-color="#5498FF"/>
<stop offset="0.515625" stop-color="#428EFF"/>
<stop offset="1" stop-color="#297FFF"/>
</linearGradient>
<linearGradient id="paint1_linear" x1="12.6462" y1="-7.58512" x2="7.64978" y2="9.88245" gradientUnits="userSpaceOnUse">
<stop stop-color="#5498FF"/>
<stop offset="0.515625" stop-color="#428EFF"/>
<stop offset="1" stop-color="#297FFF"/>
</linearGradient>
<linearGradient id="paint2_linear" x1="20.159" y1="5.20838" x2="14.2498" y2="15.7666" gradientUnits="userSpaceOnUse">
<stop stop-color="#5498FF"/>
<stop offset="0.515625" stop-color="#428EFF"/>
<stop offset="1" stop-color="#297FFF"/>
</linearGradient>
<linearGradient id="paint3_linear" x1="16.8336" y1="-7.16163" x2="8.09076" y2="4.70108" gradientUnits="userSpaceOnUse">
<stop stop-color="#5498FF"/>
<stop offset="0.515625" stop-color="#428EFF"/>
<stop offset="1" stop-color="#297FFF"/>
</linearGradient>
<clipPath id="clip0">
<rect width="20" height="20" fill="white" transform="translate(0.500122)"/>
</clipPath>
</defs>
</svg>
